<?xml version="1.0"?>
<svg xmlns="http://www.w3.org/2000/svg" xmlns:xlink="http://www.w3.org/1999/xlink" xmlns:svgjs="http://svgjs.com/svgjs" version="1.1" width="512" height="512" x="0" y="0" viewBox="0 0 64 64" style="enable-background:new 0 0 512 512" xml:space="preserve" class=""><g><g xmlns="http://www.w3.org/2000/svg" fill="#f0bc5e"><path d="m9 38h20v9h-20z" fill="#fb8312" data-original="#f0bc5e" style="" class=""/><path d="m29 35h-20v-14h20z" fill="#fb8312" data-original="#f0bc5e" style="" class=""/><path d="m55 47h-20v-12h20z" fill="#fb8312" data-original="#f0bc5e" style="" class=""/></g><path xmlns="http://www.w3.org/2000/svg" d="m57.679 23.084c.135-.164.28-.316.447-.439 3.052-2.255 4.874-5.861 4.874-9.645 0-3.41-1.459-6.671-4.002-8.946-2.542-2.273-5.961-3.359-9.376-2.977-5.265.588-9.67 4.802-10.475 10.02-.313 2.028-.103 4.049.553 5.903h-1.7c-2.548 0-4.775 1.373-6 3.413-1.225-2.04-3.452-3.413-6-3.413h-21v8h-4v29c0 2.757 2.243 5 5 5h21.101c.465 2.279 2.484 4 4.899 4s4.435-1.721 4.899-4h21.101c2.757 0 5-2.243 5-5v-29h-3.184c-.34-.952-1.139-1.683-2.137-1.916zm.321 2.916c0 .551-.448 1-1 1h-12c-.552 0-1-.449-1-1s.448-1 1-1h12c.552 0 1 .449 1 1zm-3.184 3c-.414 1.161-1.514 2-2.816 2h-2c-1.302 0-2.402-.839-2.816-2zm-13.692-17.598c.67-4.341 4.337-7.848 8.721-8.338 2.888-.322 5.671.558 7.819 2.48 2.12 1.897 3.336 4.614 3.336 7.456 0 3.199-1.48 6.128-4.062 8.037-.667.492-1.191 1.174-1.525 1.963h-3.413v-7h-2v7h-3.419c-.34-.791-.873-1.483-1.556-1.991-2.978-2.223-4.473-5.904-3.901-9.607zm-3.124 7.598h2.618c.801 1.386 1.883 2.62 3.212 3.612.181.135.338.3.482.475-1.322.313-2.312 1.496-2.312 2.913 0 1.654 1.346 3 3 3h.101c.465 2.279 2.484 4 4.899 4h2c2.414 0 4.434-1.721 4.899-4h.101v24h-24v-29c0-2.757 2.243-5 5-5zm-31 0h19c2.757 0 5 2.243 5 5v29h-24zm54 35c0 1.654-1.346 3-3 3h-23v1c0 1.654-1.346 3-3 3s-3-1.346-3-3v-1h-23c-1.654 0-3-1.346-3-3v-27h2v28h26 2 26v-26.78c.366-.33.647-.746.816-1.22h1.184z" fill="#000000" data-original="#000000" style="" class=""/><path xmlns="http://www.w3.org/2000/svg" d="m9 37h20v2h-20z" fill="#000000" data-original="#000000" style="" class=""/><path xmlns="http://www.w3.org/2000/svg" d="m9 41h20v2h-20z" fill="#000000" data-original="#000000" style="" class=""/><path xmlns="http://www.w3.org/2000/svg" d="m9 45h20v2h-20z" fill="#000000" data-original="#000000" style="" class=""/><path xmlns="http://www.w3.org/2000/svg" d="m35 31h8v2h-8z" fill="#000000" data-original="#000000" style="" class=""/><path xmlns="http://www.w3.org/2000/svg" d="m35 21h2v2h-2z" fill="#000000" data-original="#000000" style="" class=""/><path xmlns="http://www.w3.org/2000/svg" d="m35 25h2v2h-2z" fill="#000000" data-original="#000000" style="" class=""/><path xmlns="http://www.w3.org/2000/svg" d="m23 25h2v2h-2z" fill="#000000" data-original="#000000" style="" class=""/><path xmlns="http://www.w3.org/2000/svg" d="m19 25h2v2h-2z" fill="#000000" data-original="#000000" style="" class=""/><path xmlns="http://www.w3.org/2000/svg" d="m15 25h2v2h-2z" fill="#000000" data-original="#000000" style="" class=""/><path xmlns="http://www.w3.org/2000/svg" d="m45 13c0-1.626.64-3.148 1.802-4.286l-1.4-1.429c-1.549 1.517-2.402 3.547-2.402 5.715 0 .381.027.766.081 1.142l1.98-.284c-.04-.283-.061-.571-.061-.858z" fill="#000000" data-original="#000000" style="" class=""/><path xmlns="http://www.w3.org/2000/svg" d="m46.802 17.286c-.509-.498-.92-1.075-1.225-1.715l-1.807.859c.406.853.955 1.622 1.631 2.285z" fill="#000000" data-original="#000000" style="" class=""/><path xmlns="http://www.w3.org/2000/svg" d="m51 17c-2.206 0-4-1.794-4-4s1.794-4 4-4 4 1.794 4 4-1.794 4-4 4z" fill="#fb8312" data-original="#f0bc5e" style="" class=""/></g></svg>
