<?xml version="1.0"?>
<svg xmlns="http://www.w3.org/2000/svg" xmlns:xlink="http://www.w3.org/1999/xlink" xmlns:svgjs="http://svgjs.com/svgjs" version="1.1" width="512" height="512" x="0" y="0" viewBox="0 0 64 64" style="enable-background:new 0 0 512 512" xml:space="preserve" class=""><g><path xmlns="http://www.w3.org/2000/svg" d="m29.401 37c-3.369-3.238-5.401-7.762-5.401-12.649 0-3.759 2.492-7.063 6.107-8.096l.893-.255 1.69.751c4.82 2.142 10.035 3.249 15.31 3.249v4.351c0 6.041-3.097 11.533-8 14.715v1.249c0 1.624.982 3.087 2.485 3.702l8.601 3.519c1.232-1.578 1.914-3.528 1.914-5.536v-24c0-9.374-7.626-17-17-17s-17 7.626-17 17v19z" fill="#fb8312" data-original="#f0bc5e" style="" class=""/><circle xmlns="http://www.w3.org/2000/svg" cx="30" cy="24" r="1" fill="#000000" data-original="#000000" style="" class=""/><circle xmlns="http://www.w3.org/2000/svg" cx="42" cy="24" r="1" fill="#000000" data-original="#000000" style="" class=""/><path xmlns="http://www.w3.org/2000/svg" d="m36 36c-2.206 0-4-1.794-4-4h2c0 1.103.897 2 2 2s2-.897 2-2h2c0 2.206-1.794 4-4 4z" fill="#000000" data-original="#000000" style="" class=""/><path xmlns="http://www.w3.org/2000/svg" d="m53.123 47.289-10.259-4.198c-1.133-.463-1.864-1.553-1.864-2.777v-.718c4.921-3.401 8-9.039 8-15.245v-5.351h-1c-5.167 0-10.182-1.064-14.904-3.163l-2.021-.899-1.242.355c-4.023 1.15-6.833 4.874-6.833 9.058 0 4.236 1.501 8.364 4.152 11.649h-17.152c-4.963 0-9 4.038-9 9s4.037 9 9 9h1.179c-1.423 2.426-2.179 5.154-2.179 8v1h54v-1c0-6.483-3.877-12.257-9.877-14.711zm-9.534-1.741 1.731.708c.451 1.949 1.037 6.079-.34 7.875-.455.593-1.084.869-1.98.869-2.901 0-4.684-.72-5.581-1.225zm-1.892-.81-.947 1.262h-5.816c.037-.329.066-.661.066-1v-3.306c.23.089.461.181.684.255l.316.105.316-.105c.946-.315 1.853-.702 2.717-1.151.164 1.684 1.159 3.159 2.664 3.94zm-16.697-20.387c0-3.295 2.213-6.229 5.381-7.134l.545-.155 1.357.604c4.675 2.077 9.621 3.193 14.717 3.322v3.364c0 7.022-4.406 13.245-10.999 15.591-.319-.116-.655-.256-1.001-.408v-3.535h-5.169c-3.068-3.091-4.831-7.308-4.831-11.649zm-15 27.649c-3.859 0-7-3.14-7-7s3.141-7 7-7h23v7c0 3.86-3.141 7-7 7zm24.58 1.774c-.9.507-2.682 1.226-5.58 1.226-.706 0-1.521-.149-2.1-1.046 2.24-.223 4.233-1.277 5.686-2.84zm.42 7.226h-14v-5h-2v5h-7.965c.179-2.523 1.044-4.915 2.517-7h11.151c.739 1.942 2.238 3 4.297 3 2.81 0 4.76-.606 6-1.195zm-1.176-11.568c.257-.452.461-.936.639-1.432h4.787l-3.25 4.333zm19.176 11.568v-5h-2v5h-14v-5.195c1.24.589 3.19 1.195 6 1.195 1.506 0 2.74-.572 3.568-1.653 1.657-2.164 1.363-5.896.973-8.181l4.824 1.974c4.935 2.018 8.227 6.605 8.6 11.86z" fill="#000000" data-original="#000000" style="" class=""/><path xmlns="http://www.w3.org/2000/svg" d="m46.962 17.083c-.051-.617-.154-1.234-.309-1.834l1.938-.497c.182.708.305 1.438.365 2.166z" fill="#000000" data-original="#000000" style="" class=""/><path xmlns="http://www.w3.org/2000/svg" d="m46.003 13.417c-1.789-3.898-5.716-6.417-10.003-6.417v-2c5.066 0 9.706 2.976 11.821 7.583z" fill="#000000" data-original="#000000" style="" class=""/><path xmlns="http://www.w3.org/2000/svg" d="m18 48c-1.654 0-3-1.346-3-3s1.346-3 3-3 3 1.346 3 3-1.346 3-3 3zm0-4c-.552 0-1 .449-1 1s.448 1 1 1 1-.449 1-1-.448-1-1-1z" fill="#000000" data-original="#000000" style="" class=""/><path xmlns="http://www.w3.org/2000/svg" d="m10 48c-1.654 0-3-1.346-3-3s1.346-3 3-3 3 1.346 3 3-1.346 3-3 3zm0-4c-.552 0-1 .449-1 1s.448 1 1 1 1-.449 1-1-.448-1-1-1z" fill="#000000" data-original="#000000" style="" class=""/><path xmlns="http://www.w3.org/2000/svg" d="m26 48c-1.654 0-3-1.346-3-3s1.346-3 3-3 3 1.346 3 3-1.346 3-3 3zm0-4c-.552 0-1 .449-1 1s.448 1 1 1 1-.449 1-1-.448-1-1-1z" fill="#000000" data-original="#000000" style="" class=""/></g></svg>
